<svg width="19" height="20" viewBox="0 0 19 20" fill="none" xmlns="http://www.w3.org/2000/svg">
<path fill-rule="evenodd" clip-rule="evenodd" d="M4.74502 0H14.255C15.4139 0 15.9933 0 16.4606 0.162607C17.3468 0.470955 18.0425 1.18719 18.342 2.09946C18.5 2.58055 18.5 3.17705 18.5 4.37006V18.3742C18.5 19.2324 17.515 19.6878 16.8919 19.1176C16.5258 18.7826 15.9742 18.7826 15.6081 19.1176L15.125 19.5597C14.4834 20.1468 13.5166 20.1468 12.875 19.5597C12.2334 18.9726 11.2666 18.9726 10.625 19.5597C9.98341 20.1468 9.01659 20.1468 8.375 19.5597C7.73341 18.9726 6.76659 18.9726 6.125 19.5597C5.48341 20.1468 4.51659 20.1468 3.875 19.5597L3.3919 19.1176C3.02583 18.7826 2.47417 18.7826 2.1081 19.1176C1.485 19.6878 0.5 19.2324 0.5 18.3742V4.37006C0.5 3.17705 0.5 2.58055 0.657954 2.09946C0.957479 1.18719 1.65322 0.470955 2.53939 0.162607C3.00671 0 3.58614 0 4.74502 0ZM4.5 4.75C4.08579 4.75 3.75 5.08579 3.75 5.5C3.75 5.91421 4.08579 6.25 4.5 6.25H5C5.41421 6.25 5.75 5.91421 5.75 5.5C5.75 5.08579 5.41421 4.75 5 4.75H4.5ZM8 4.75C7.58579 4.75 7.25 5.08579 7.25 5.5C7.25 5.91421 7.58579 6.25 8 6.25H14.5C14.9142 6.25 15.25 5.91421 15.25 5.5C15.25 5.08579 14.9142 4.75 14.5 4.75H8ZM4.5 8.25C4.08579 8.25 3.75 8.58579 3.75 9C3.75 9.41421 4.08579 9.75 4.5 9.75H5C5.41421 9.75 5.75 9.41421 5.75 9C5.75 8.58579 5.41421 8.25 5 8.25H4.5ZM8 8.25C7.58579 8.25 7.25 8.58579 7.25 9C7.25 9.41421 7.58579 9.75 8 9.75H14.5C14.9142 9.75 15.25 9.41421 15.25 9C15.25 8.58579 14.9142 8.25 14.5 8.25H8ZM4.5 11.75C4.08579 11.75 3.75 12.0858 3.75 12.5C3.75 12.9142 4.08579 13.25 4.5 13.25H5C5.41421 13.25 5.75 12.9142 5.75 12.5C5.75 12.0858 5.41421 11.75 5 11.75H4.5ZM8 11.75C7.58579 11.75 7.25 12.0858 7.25 12.5C7.25 12.9142 7.58579 13.25 8 13.25H14.5C14.9142 13.25 15.25 12.9142 15.25 12.5C15.25 12.0858 14.9142 11.75 14.5 11.75H8Z" fill="#4B56E3"/>
</svg>
